<?xml version="1.0" encoding="UTF-8"?>
<svg id="Layer_2" data-name="Layer 2" xmlns="http://www.w3.org/2000/svg" viewBox="0 0 182.91 65.04">
  <defs>
    <style>
      .cls-1 {
        fill: #03384f;
      }

      .cls-2 {
        fill: #414042;
      }

      .cls-3 {
        fill: #a61f23;
      }
    </style>
  </defs>
  <g id="Layer_1-2" data-name="Layer 1">
    <g>
      <g>
        <path class="cls-2" d="M0,58.63h.96v4.87h-.96v-4.87Z"/>
        <path class="cls-2" d="M6.76,61.58v1.92h-.93v-1.86c0-.53-.29-.83-.74-.83-.5,0-.83.37-.83.9v1.8h-.93v-3.44h.8l.06.4c.27-.3.67-.47,1.13-.47.88,0,1.44.61,1.44,1.59Z"/>
        <path class="cls-2" d="M12.43,61.58v1.92h-.93v-1.86c0-.53-.29-.83-.74-.83-.5,0-.83.37-.83.9v1.8h-.93v-3.44h.8l.06.4c.27-.3.67-.47,1.13-.47.88,0,1.44.61,1.44,1.59Z"/>
        <path class="cls-2" d="M14.46,61.78c0-1.05.72-1.79,1.86-1.79s1.86.74,1.86,1.79-.72,1.8-1.86,1.8-1.86-.74-1.86-1.8ZM17.25,61.78c0-.55-.37-.99-.94-.99s-.94.44-.94.99.37.99.94.99.94-.44.94-.99Z"/>
        <path class="cls-2" d="M23.62,60.06l-1.45,3.44h-.97l-1.46-3.44h1.01l.45,1.11.5,1.36.49-1.36.45-1.11h.99Z"/>
        <path class="cls-2" d="M28.9,60.06v3.44h-.8l-.06-.42c-.29.32-.7.49-1.19.49-.99,0-1.67-.74-1.67-1.8s.68-1.79,1.67-1.79c.49,0,.91.17,1.19.49l.06-.41h.8ZM27.98,61.78c0-.58-.39-.99-.95-.99s-.94.41-.94.99.39.99.94.99.95-.41.95-.99Z"/>
        <path class="cls-2" d="M30.98,61.78c0-1.07.74-1.79,1.85-1.79.51,0,.95.18,1.32.54l-.54.58c-.19-.19-.47-.31-.75-.31-.57,0-.97.4-.97.99s.39.99.97.99c.31,0,.58-.12.79-.33l.54.58c-.39.38-.83.56-1.36.56-1.13,0-1.86-.7-1.86-1.8Z"/>
        <path class="cls-2" d="M36.07,59.1c0-.32.24-.54.56-.54s.57.22.57.54-.24.53-.57.53-.56-.22-.56-.53ZM36.17,60.06h.93v3.44h-.93v-3.44Z"/>
        <path class="cls-2" d="M39.17,61.78c0-1.05.72-1.79,1.86-1.79s1.86.74,1.86,1.79-.72,1.8-1.86,1.8-1.86-.74-1.86-1.8ZM41.97,61.78c0-.55-.37-.99-.94-.99s-.94.44-.94.99.37.99.94.99.94-.44.94-.99ZM41.01,58.63h1.04l-.72,1h-.8l.48-1Z"/>
        <path class="cls-2" d="M48.39,61.58v1.92h-.93v-1.86c0-.53-.29-.83-.74-.83-.5,0-.83.37-.83.9v1.8h-.93v-3.44h.8l.06.4c.27-.3.67-.47,1.13-.47.88,0,1.44.61,1.44,1.59Z"/>
        <path class="cls-2" d="M57.52,62.66v.84h-3.7v-4.87h3.64v.83h-2.69v1.16h2.57v.81h-2.57v1.22h2.76Z"/>
        <path class="cls-2" d="M65.19,61.45v2.05h-.93v-1.94c0-.49-.23-.76-.64-.76-.45,0-.74.32-.74.81v1.89h-.92v-1.94c0-.49-.23-.76-.64-.76-.45,0-.74.32-.74.81v1.89h-.93v-3.44h.8l.06.4c.23-.3.58-.47.98-.47.47,0,.86.22,1.07.57.27-.38.67-.57,1.2-.57.88,0,1.42.55,1.42,1.46Z"/>
        <path class="cls-2" d="M71.15,61.78c0,1.06-.68,1.8-1.67,1.8-.45,0-.85-.15-1.13-.43v1.89h-.93v-4.98h.8l.06.41c.28-.31.7-.49,1.19-.49.99,0,1.67.74,1.67,1.79ZM70.23,61.78c0-.58-.39-.99-.94-.99s-.95.41-.95.99.39.99.95.99.94-.41.94-.99Z"/>
        <path class="cls-2" d="M75.95,60.31l-.4.72c-.19-.13-.36-.18-.56-.18-.51,0-.83.35-.83.98v1.68h-.93v-3.44h.8l.08.43c.26-.35.59-.5.97-.5.32,0,.65.1.88.31Z"/>
        <path class="cls-2" d="M81.06,62.09h-2.65c.06.43.44.72,1,.72.37,0,.74-.13.96-.33l.52.53c-.36.37-.91.58-1.51.58-1.16,0-1.9-.7-1.9-1.8s.73-1.79,1.81-1.79c1.25,0,1.93.82,1.78,2.09ZM78.42,61.47h1.77c-.03-.45-.37-.72-.88-.72-.49,0-.81.26-.88.72Z"/>
        <path class="cls-2" d="M82.88,63.1l.38-.65c.32.22.79.35,1.22.35.37,0,.58-.12.58-.32s-.19-.31-.66-.35c-.88-.07-1.41-.46-1.41-1.08s.6-1.09,1.52-1.09c.54,0,1.02.15,1.38.39l-.38.64c-.29-.18-.61-.26-.96-.26-.43,0-.65.11-.65.32,0,.19.17.29.6.33,1,.1,1.48.44,1.48,1.1s-.59,1.11-1.54,1.11c-.6,0-1.13-.17-1.57-.49Z"/>
        <path class="cls-2" d="M91.49,60.06v3.44h-.8l-.06-.42c-.29.32-.7.49-1.19.49-.99,0-1.67-.74-1.67-1.8s.68-1.79,1.67-1.79c.49,0,.91.17,1.19.49l.06-.41h.8ZM90.57,61.78c0-.58-.39-.99-.95-.99s-.94.41-.94.99.39.99.94.99.95-.41.95-.99Z"/>
        <path class="cls-2" d="M96.5,60.31l-.4.72c-.2-.13-.36-.18-.56-.18-.51,0-.83.35-.83.98v1.68h-.93v-3.44h.8l.08.43c.26-.35.59-.5.97-.5.32,0,.65.1.88.31Z"/>
        <path class="cls-2" d="M98.22,59.1c0-.32.24-.54.56-.54s.57.22.57.54-.24.53-.57.53-.56-.22-.56-.53ZM98.31,60.06h.93v3.44h-.93v-3.44Z"/>
        <path class="cls-2" d="M105.04,60.06v3.44h-.8l-.06-.42c-.29.32-.7.49-1.19.49-.99,0-1.67-.74-1.67-1.8s.68-1.79,1.67-1.79c.49,0,.91.17,1.19.49l.06-.41h.8ZM104.12,61.78c0-.58-.39-.99-.95-.99s-.94.41-.94.99.39.99.94.99.95-.41.95-.99Z"/>
        <path class="cls-2" d="M107.32,58.63h.93v4.87h-.93v-4.87Z"/>
      </g>
      <g>
        <path class="cls-1" d="M.41,12.3h8.18v39.13H.41V12.3Z"/>
        <path class="cls-1" d="M11.91,12.3h8.18l15.68,24.42V12.3h8.18v39.13h-8.18l-15.68-24.26v24.26h-8.18V12.3Z"/>
        <path class="cls-1" d="M46.79,12.3h8.18l15.68,24.42V12.3h8.18v39.13h-8.18l-15.68-24.26v24.26h-8.18V12.3Z"/>
        <path class="cls-1" d="M81.72,12.3h27.64v8.35h-19.46v7.36h17.6v7.72h-17.6v7.36h19.46v8.35h-27.64V12.3Z"/>
      </g>
      <path class="cls-2" d="M182.91,6.07c0,.49-.08.92-.25,1.3s-.39.7-.68.97-.61.47-.98.6-.76.21-1.17.21-.8-.07-1.17-.21c-.37-.14-.7-.34-.98-.6s-.51-.59-.68-.97-.25-.81-.25-1.3.08-.91.25-1.3c.17-.38.4-.71.68-.97s.61-.47.98-.6c.37-.14.76-.21,1.17-.21s.8.07,1.17.21c.37.14.7.34.98.6s.51.59.68.97c.17.38.25.82.25,1.3ZM182,6.07c0-.34-.05-.65-.16-.93-.11-.28-.26-.52-.45-.71-.19-.2-.42-.35-.69-.46-.27-.11-.56-.16-.88-.16s-.61.05-.88.16c-.27.11-.5.26-.69.46-.19.2-.34.44-.45.71-.11.28-.16.59-.16.93s.05.65.16.93c.11.28.26.52.45.71.19.2.42.35.69.46s.56.16.88.16.61-.05.88-.16c.27-.11.5-.26.69-.46.19-.2.34-.44.45-.71.11-.28.16-.59.16-.93ZM180.36,7.52c-.1-.22-.19-.4-.26-.57-.07-.16-.15-.31-.24-.44h-.35v1h-.86v-2.91c.2-.05.39-.08.56-.1.17-.02.33-.03.46-.03.95,0,1.43.34,1.43,1.03,0,.35-.16.61-.48.77.06.1.12.19.17.28s.1.18.15.27c.05.09.1.2.15.31.05.11.11.24.17.38h-.91ZM179.51,5.85h.16c.19,0,.33-.02.43-.07.09-.05.14-.14.14-.28,0-.11-.04-.19-.12-.24-.08-.05-.2-.07-.36-.07-.04,0-.08,0-.13,0-.04,0-.08,0-.11.01v.64Z"/>
      <g>
        <path class="cls-3" d="M131.43,51.83v-29.81c0-1.47,1.24-2.66,2.77-2.66h2.74c2.47,0,3.7-2.87,1.96-4.54l-2.74-2.63c-1.74-1.68-.51-4.54,1.96-4.54h30.98c-5.55-4.76-12.77-7.65-20.66-7.65-17.54,0-31.76,14.22-31.76,31.76s14.22,31.76,31.76,31.76c8.63,0,16.45-3.45,22.18-9.04h-36.41c-1.53,0-2.77-1.19-2.77-2.66Z"/>
        <path class="cls-3" d="M177.66,19.33c-.08,0-.16.02-.24.02h-31.03c-1.53,0-2.77,1.19-2.77,2.66v18.1c0,1.47,1.24,2.66,2.77,2.66h14.93c2.47,0,3.7-2.86,1.96-4.54l-2.74-2.63c-1.74-1.68-.51-4.54,1.96-4.54h4.36c.73,0,1.44.28,1.96.78l9.9,9.51c.96-3.03,1.48-6.25,1.48-9.6,0-4.41-.9-8.61-2.52-12.43Z"/>
      </g>
    </g>
  </g>
</svg>